PathFileType	4	(x/y/z)	S10_P20_T22
DataRate	CameraRate	NumFrames	NumMarkers	Units	OrigDataRate	OrigDataStartFrame	OrigNumFrames
240	240	10	51	mm	240	51	405
Frame#	Time	Sternum			R.Acromium			L.Acromium			Top.Head			R.ASIS			L.ASIS			R.PSIS			L.PSIS			R.Great.Tro			L.Great.Tro			R.Iliac.Crest			L.Iliac.Crest			V.Sacral			R.Thigh.Upper.Post			R.Thigh.Lower.Ant			R.Thigh.Lower.Post			R.Thigh.Upper.Ant			R.Knee.Lat			R.Knee.Med			R.Shank.Upper.Post			R.Shank.Lower.Ant			R.Shank.Lower.Post			R.Shank.Upper.Ant			R.Ankle.Lat			R.Ankle.Med			R.Heel.Upper			R.Heel.Med			R.Heel.Lat			R.Toe.Lat			R.Toe.Med			R.Toe.Tip			L.Thigh.Upper.Post			L.Thigh.Lower.Ant			L.Thigh.Lower.Post			L.Thigh.Upper.Ant			L.Knee.Lat			L.Knee.Med			L.Shank.Upper.Post			L.Shank.Lower.Ant			L.Shank.Lower.Post			L.Shank.Upper.Ant			L.Ankle.Lat			L.Ankle.Med			L.Heel.Upper			L.Heel.Med			L.Heel.Lat			L.Toe.Lat			L.Toe.Med			L.Toe.Tip			Cervical.Spine			Back			
		X1	Y1	Z1	X2	Y2	Z2	X3	Y3	Z3	X4	Y4	Z4	X5	Y5	Z5	X6	Y6	Z6	X7	Y7	Z7	X8	Y8	Z8	X9	Y9	Z9	X10	Y10	Z10	X11	Y11	Z11	X12	Y12	Z12	X13	Y13	Z13	X14	Y14	Z14	X15	Y15	Z15	X16	Y16	Z16	X17	Y17	Z17	X18	Y18	Z18	X19	Y19	Z19	X20	Y20	Z20	X21	Y21	Z21	X22	Y22	Z22	X23	Y23	Z23	X24	Y24	Z24	X25	Y25	Z25	X26	Y26	Z26	X27	Y27	Z27	X28	Y28	Z28	X29	Y29	Z29	X30	Y30	Z30	X31	Y31	Z31	X32	Y32	Z32	X33	Y33	Z33	X34	Y34	Z34	X35	Y35	Z35	X36	Y36	Z36	X37	Y37	Z37	X38	Y38	Z38	X39	Y39	Z39	X40	Y40	Z40	X41	Y41	Z41	X42	Y42	Z42	X43	Y43	Z43	X44	Y44	Z44	X45	Y45	Z45	X46	Y46	Z46	X47	Y47	Z47	X48	Y48	Z48	X49	Y49	Z49	X50	Y50	Z50	X51	Y51	Z51	

51	0.20833	-1068.8	1268.8	306.46	-1196.8	1425.3	456.33	-1191.4	1454.5	158.97	-1230.6	1744.3	338.01	-1126	993.64	417.27	-1116	1024.9	187.29	-1329	1021.3	321.89	-1320.4	1034.3	241.93	-1202.9	910.56	482.85	-1171.1	966.96	124.4	-1229.8	1073.7	460.7	-1193.7	1100.1	158.61	-1347	993.38	281.59	NaN	NaN	NaN	-1085.3	636.47	456.57	-1146.1	616.71	483.71	-1092.5	728.49	458.61	-1138.7	491.76	451.73	-1121.1	484.88	320.53	-1335.5	393.39	440.67	-1353.7	306.44	433.02	-1396.6	347.14	433.24	-1279.5	346.18	439.04	-1464.9	264.33	414.59	-1440.6	262.99	332.34	-1511.4	299.82	360.34	-1529.8	285.47	331.52	-1533.6	290.16	390.62	-1515.2	119.74	434.97	-1484.4	100.23	327.95	-1452.9	49.17	369.68	-1158.1	678.82	137.59	-1073.7	616.1	174.16	-1143	587.63	165.29	NaN	NaN	NaN	-1095.8	511.19	186.8	-1097.5	518.19	315.98	-1165.1	301.83	183.15	-1106.4	211.17	209.78	-1170.1	223.36	195.79	-1102.2	287.44	197.15	-1152.4	108.22	209.73	-1145.5	115.87	298.64	-1224.6	76.201	253.01	-1216.9	44.011	285.48	-1217.5	47.946	220.72	-1039.2	42.628	192.86	-1018.4	45.438	303.91	-960.59	57.928	257.24	-1272.9	1491.1	317.38	-1359.8	1283.3	303.22
52	0.2125	-1063.8	1269.3	307.03	-1192.1	1425.9	456.4	-1185.5	1455.2	159.09	-1225	1745	338.04	-1121.1	994.56	417.22	-1110.6	1025.5	187.17	-1323.9	1021.9	321.33	-1315.2	1034.9	241.37	-1198.1	911.69	482.84	-1165.8	967.19	124.26	-1225	1074.5	460.37	-1188.1	1100.6	158.32	-1341.9	994	281.03	NaN	NaN	NaN	-1076.7	638.85	456.96	-1137.3	618.38	484.31	-1085.1	730.73	458.67	-1128.3	493.53	452.12	-1110	487.29	320.72	-1324.7	394.26	440.79	-1342	307.11	433.04	-1385.4	347.75	433.29	-1268.6	347.39	439.26	-1453.5	264.66	414.49	-1429.2	263.08	332.54	-1501.3	298.93	359.96	-1519.3	283.87	331.25	-1522.7	289.3	390.42	-1500.8	119.79	435.96	-1469.7	100.23	328.92	-1437.3	49.563	371.24	-1155	679.08	137.77	-1071	615.88	174	-1140.4	587.78	165.41	NaN	NaN	NaN	-1093.7	511.01	186.83	-1095	518.07	315.87	-1163.8	302.03	183.21	-1105.7	211	209.84	-1169.4	223.54	195.88	-1101.1	287.27	197.18	-1152.1	108.53	209.73	-1145.2	115.97	298.75	-1224.5	76.342	253.04	-1216.8	44.13	285.5	-1217.5	48.088	220.74	-1039.2	42.622	192.86	-1018.4	45.249	303.99	-960.5	57.716	257.27	-1267.3	1491.8	317.2	-1354.6	1284.1	302.48
53	0.21667	-1058.7	1269.9	307.6	-1187.5	1426.5	456.49	-1179.6	1455.9	159.23	-1219.4	1745.6	338.09	-1116.2	995.53	417.16	-1105.1	1026.1	187.04	-1318.7	1022.6	320.78	-1309.9	1035.4	240.82	-1193.2	912.87	482.84	-1160.7	967.43	124.11	-1220.2	1075.4	460.04	-1182.5	1101.2	158.03	-1336.7	994.66	280.49	NaN	NaN	NaN	-1068.3	641.28	457.32	-1128.6	620.14	484.89	-1077.6	733.01	458.71	-1118	495.38	452.46	-1099.1	489.79	320.87	-1313.9	395.02	440.84	-1330.2	307.63	433	-1374.2	348.17	433.31	-1257.8	348.57	439.43	-1441.9	264.74	414.35	-1417.8	262.93	332.72	-1491.1	297.66	359.56	-1508.8	281.86	330.96	-1511.7	288.02	390.21	-1486.1	119.6	437	-1454.6	100	329.94	-1421.3	49.886	372.85	-1151.9	679.37	137.97	-1068.1	615.77	173.69	-1138	587.94	165.55	NaN	NaN	NaN	-1091.6	510.85	186.85	-1092.6	517.98	315.77	-1162.6	302.24	183.28	-1105.1	210.86	209.89	-1168.7	223.74	195.96	-1100	287.13	197.2	-1151.7	108.85	209.72	-1144.9	116.08	298.87	-1224.4	76.491	253.07	-1216.8	44.255	285.53	-1217.4	48.235	220.77	-1039.1	42.612	192.87	-1018.3	45.061	304.06	-960.41	57.498	257.3	-1261.8	1492.4	317.03	-1349.5	1284.8	301.74
54	0.22083	-1053.7	1270.5	308.17	-1182.9	1427.1	456.59	-1173.7	1456.6	159.37	-1213.7	1746.4	338.16	-1111.3	996.55	417.08	-1099.7	1026.7	186.9	-1313.6	1023.3	320.26	-1304.7	1036	240.3	-1188.3	914.1	482.85	-1155.5	967.68	123.98	-1215.4	1076.3	459.71	-1177	1101.7	157.74	-1331.6	995.35	279.98	NaN	NaN	NaN	-1059.9	643.76	457.65	-1120.1	621.97	485.43	-1070.3	735.33	458.72	-1107.9	497.3	452.76	-1088.4	492.34	320.97	-1303.1	395.66	440.83	-1318.2	308.01	432.91	-1363	348.39	433.28	-1246.9	349.69	439.56	-1430.3	264.57	414.17	-1406.3	262.56	332.88	-1481	296.03	359.14	-1498.2	279.46	330.65	-1500.8	286.33	389.98	-1471	119.16	438.06	-1439.1	99.532	331.03	-1404.9	50.132	374.5	-1148.9	679.68	138.18	-1065.2	615.76	173.23	-1135.6	588.14	165.7	NaN	NaN	NaN	-1089.6	510.72	186.88	-1090.2	517.92	315.67	-1161.5	302.46	183.36	-1104.5	210.75	209.93	-1168	223.97	196.03	-1098.9	287	197.21	-1151.4	109.19	209.72	-1144.6	116.19	298.98	-1224.4	76.648	253.11	-1216.8	44.387	285.55	-1217.4	48.387	220.8	-1039	42.597	192.87	-1018.3	44.876	304.13	-960.31	57.276	257.34	-1256.2	1493.1	316.87	-1344.4	1285.6	300.99
55	0.225	-1048.7	1271.2	308.73	-1178.4	1427.7	456.69	-1167.9	1457.4	159.52	-1208.1	1747.1	338.25	-1106.5	997.63	416.99	-1094.2	1027.3	186.74	-1308.5	1024.1	319.77	-1299.5	1036.7	239.8	-1183.4	915.38	482.86	-1150.4	967.93	123.85	-1210.7	1077.3	459.38	-1171.5	1102.3	157.45	-1326.4	996.07	279.5	NaN	NaN	NaN	-1051.6	646.28	457.94	-1111.6	623.86	485.95	-1063	737.68	458.71	-1097.9	499.28	453.01	-1077.9	494.93	321.03	-1292.4	396.17	440.76	-1306.1	308.23	432.77	-1351.7	348.41	433.22	-1236	350.77	439.66	-1418.4	264.13	413.98	-1394.7	261.95	333.03	-1470.7	294.04	358.72	-1487.5	276.67	330.33	-1489.9	284.23	389.75	-1455.6	118.49	439.14	-1423.3	98.837	332.17	-1388.1	50.298	376.19	-1146	680.02	138.41	-1062	615.86	172.63	-1133.2	588.37	165.88	NaN	NaN	NaN	-1087.6	510.61	186.91	-1087.9	517.87	315.57	-1160.4	302.7	183.45	-1103.9	210.66	209.96	-1167.3	224.21	196.08	-1097.9	286.9	197.21	-1151	109.54	209.71	-1144.4	116.31	299.09	-1224.3	76.812	253.15	-1216.8	44.527	285.58	-1217.3	48.545	220.83	-1039	42.578	192.88	-1018.3	44.697	304.2	-960.2	57.049	257.37	-1250.8	1493.8	316.71	-1339.2	1286.4	300.24
56	0.22917	-1043.7	1271.9	309.28	-1173.8	1428.3	456.79	-1162.1	1458.2	159.67	-1202.4	1747.9	338.35	-1101.6	998.75	416.89	-1088.9	1027.9	186.58	-1303.4	1024.9	319.3	-1294.3	1037.3	239.33	-1178.4	916.69	482.89	-1145.4	968.19	123.73	-1205.9	1078.4	459.05	-1166.1	1102.9	157.17	-1321.3	996.81	279.06	NaN	NaN	NaN	-1043.3	648.83	458.19	-1103.1	625.81	486.42	-1055.8	740.06	458.67	-1087.9	501.31	453.22	-1067.6	497.55	321.06	-1281.7	396.56	440.64	-1293.9	308.29	432.61	-1340.4	348.22	433.13	-1225.2	351.77	439.72	-1406.5	263.42	413.76	-1383	261.11	333.17	-1460.4	291.7	358.29	-1476.7	273.53	330.01	-1478.9	281.71	389.51	-1439.9	117.6	440.25	-1407.2	97.927	333.36	-1371	50.387	377.92	-1143.1	680.38	138.66	-1058.8	616.07	171.87	-1130.9	588.63	166.07	NaN	NaN	NaN	-1085.7	510.53	186.93	-1085.6	517.83	315.47	-1159.3	302.95	183.53	-1103.4	210.6	209.98	-1166.6	224.49	196.11	-1097	286.83	197.19	-1150.7	109.9	209.71	-1144.1	116.45	299.2	-1224.2	76.983	253.19	-1216.7	44.674	285.61	-1217.3	48.706	220.86	-1038.9	42.555	192.88	-1018.3	44.525	304.26	-960.09	56.819	257.41	-1245.4	1494.5	316.56	-1334.1	1287.3	299.48
57	0.23333	-1038.7	1272.7	309.81	-1169.3	1429	456.9	-1156.3	1459.1	159.83	-1196.8	1748.7	338.47	-1096.7	999.9	416.78	-1083.5	1028.5	186.4	-1298.3	1025.7	318.87	-1289.1	1038	238.89	-1173.4	918.03	482.92	-1140.3	968.46	123.62	-1201.1	1079.4	458.73	-1160.7	1103.5	156.89	-1316.2	997.58	278.65	NaN	NaN	NaN	-1035.2	651.41	458.39	-1094.7	627.8	486.86	-1048.6	742.45	458.61	-1078.2	503.38	453.37	-1057.6	500.18	321.06	-1271.1	396.8	440.46	-1281.7	308.2	432.42	-1329	347.82	433.01	-1214.3	352.71	439.76	-1394.4	262.45	413.53	-1371.2	260.04	333.3	-1449.9	289.01	357.86	-1465.8	270.04	329.68	-1468	278.78	389.27	-1424	116.49	441.36	-1390.8	96.813	334.61	-1353.7	50.407	379.69	-1140.3	680.77	138.91	-1055.3	616.37	170.96	-1128.7	588.91	166.28	NaN	NaN	NaN	-1083.9	510.46	186.94	-1083.3	517.8	315.4	-1158.3	303.22	183.62	-1102.8	210.56	210	-1165.9	224.79	196.13	-1096.1	286.77	197.17	-1150.4	110.25	209.72	-1143.8	116.59	299.3	-1224.1	77.16	253.23	-1216.7	44.828	285.64	-1217.2	48.872	220.89	-1038.8	42.53	192.89	-1018.3	44.362	304.31	-959.97	56.584	257.45	-1240	1495.3	316.41	-1328.9	1288.1	298.72
58	0.2375	-1033.7	1273.5	310.33	-1164.8	1429.7	457.01	-1150.5	1460	159.99	-1191.1	1749.5	338.61	-1091.9	1001.1	416.66	-1078.1	1029.1	186.21	-1293.2	1026.5	318.47	-1283.9	1038.7	238.49	-1168.4	919.39	482.96	-1135.4	968.73	123.52	-1196.3	1080.5	458.42	-1155.4	1104.1	156.62	-1311	998.37	278.29	NaN	NaN	NaN	-1027.1	654.02	458.55	-1086.4	629.83	487.26	-1041.5	744.87	458.52	-1068.5	505.48	453.48	-1047.7	502.81	321.04	-1260.6	396.91	440.25	-1269.4	307.96	432.21	-1317.6	347.21	432.88	-1203.4	353.57	439.78	-1382.2	261.2	413.3	-1359.2	258.74	333.42	-1439.3	285.98	357.42	-1454.6	266.22	329.35	-1457	275.44	389.03	-1407.9	115.17	442.47	-1374.2	95.511	335.89	-1336.2	50.369	381.48	-1137.4	681.18	139.18	-1051.7	616.77	169.9	-1126.5	589.23	166.49	NaN	NaN	NaN	-1082	510.41	186.94	-1081.1	517.76	315.34	-1157.3	303.5	183.7	-1102.3	210.56	210	-1165.2	225.11	196.14	-1095.2	286.75	197.14	-1150.1	110.58	209.74	-1143.6	116.76	299.4	-1224.1	77.342	253.28	-1216.7	44.991	285.67	-1217.1	49.043	220.93	-1038.7	42.502	192.89	-1018.2	44.208	304.36	-959.85	56.345	257.49	-1234.6	1496	316.27	-1323.8	1289	297.95
59	0.24167	-1028.7	1274.3	310.83	-1160.3	1430.4	457.12	-1144.7	1460.9	160.16	-1185.4	1750.3	338.77	-1087	1002.3	416.53	-1072.8	1029.7	186.01	-1288.1	1027.4	318.1	-1278.8	1039.4	238.12	-1163.4	920.77	483.01	-1130.4	969	123.44	-1191.4	1081.7	458.11	-1150	1104.8	156.35	-1305.9	999.18	277.96	NaN	NaN	NaN	-1019.1	656.63	458.64	-1078.1	631.88	487.61	-1034.4	747.3	458.4	-1058.9	507.6	453.54	-1038.1	505.44	320.99	-1250.1	396.87	440.01	-1257.1	307.57	431.99	-1306.2	346.38	432.73	-1192.5	354.34	439.78	-1369.8	259.69	413.06	-1347.1	257.21	333.54	-1428.5	282.63	356.99	-1443.3	262.08	329.02	-1446	271.7	388.79	-1391.5	113.67	443.58	-1357.3	94.039	337.22	-1318.4	50.288	383.29	-1134.6	681.61	139.46	-1047.9	617.23	168.71	-1124.3	589.56	166.71	NaN	NaN	NaN	-1080.3	510.39	186.93	-1078.9	517.72	315.3	-1156.4	303.79	183.78	-1101.8	210.59	209.99	-1164.5	225.46	196.13	-1094.4	286.74	197.11	-1149.8	110.89	209.76	-1143.3	116.94	299.5	-1224	77.53	253.32	-1216.7	45.161	285.7	-1217	49.217	220.97	-1038.7	42.472	192.89	-1018.2	44.063	304.4	-959.73	56.103	257.53	-1229.3	1496.8	316.14	-1318.6	1289.8	297.18
60	0.24583	-1023.7	1275.2	311.31	-1155.8	1431.1	457.23	-1139	1461.9	160.33	-1179.8	1751.2	338.95	-1082.1	1003.5	416.39	-1067.5	1030.3	185.81	-1283.1	1028.3	317.78	-1273.6	1040.2	237.79	-1158.4	922.17	483.07	-1125.5	969.28	123.37	-1186.6	1082.8	457.81	-1144.8	1105.4	156.09	-1300.8	1000	277.67	NaN	NaN	NaN	-1011.2	659.26	458.68	-1069.9	633.97	487.93	-1027.4	749.74	458.25	-1049.5	509.73	453.55	-1028.7	508.07	320.93	-1239.7	396.68	439.75	-1244.8	307.04	431.78	-1294.7	345.35	432.56	-1181.7	355.02	439.76	-1357.4	257.92	412.84	-1334.9	255.45	333.66	-1417.5	278.96	356.57	-1431.8	257.65	328.69	-1434.9	267.57	388.55	-1375	111.99	444.69	-1340.2	92.417	338.57	-1300.5	50.18	385.12	-1131.8	682.06	139.74	-1043.9	617.75	167.4	-1122.2	589.92	166.94	NaN	NaN	NaN	-1078.5	510.38	186.91	-1076.8	517.66	315.27	-1155.5	304.09	183.86	-1101.3	210.64	209.98	-1163.8	225.83	196.1	-1093.6	286.75	197.08	-1149.5	111.16	209.81	-1143.1	117.13	299.59	-1223.9	77.723	253.38	-1216.6	45.339	285.73	-1217	49.396	221.02	-1038.6	42.441	192.9	-1018.1	43.929	304.44	-959.61	55.859	257.56	-1224.1	1497.5	316.01	-1313.4	1290.7	296.41
